<?xml version="1.0" standalone="no"?>
<!DOCTYPE svg PUBLIC "-//W3C//DTD SVG 20010904//EN"
 "http://www.w3.org/TR/2001/REC-SVG-20010904/DTD/svg10.dtd">
<svg version="1.0" xmlns="http://www.w3.org/2000/svg"
 width="1309.000000pt" height="1307.000000pt" viewBox="0 0 1309.000000 1307.000000"
 preserveAspectRatio="xMidYMid meet">

<g transform="translate(0.000000,1307.000000) scale(0.100000,-0.100000)"
fill="#000000" stroke="none">
<path d="M2580 10274 c-557 -49 -1003 -206 -1329 -468 -36 -30 -105 -94 -152
-142 -298 -308 -455 -695 -490 -1210 -24 -350 30 -641 166 -902 74 -142 151
-246 280 -380 314 -326 689 -558 1410 -872 640 -279 984 -470 1251 -694 398
-334 554 -698 504 -1175 -50 -474 -279 -744 -725 -855 -171 -43 -255 -51 -510
-51 -267 0 -325 8 -515 71 -277 92 -544 268 -805 530 -246 246 -409 485 -519
758 -66 164 -115 407 -116 573 0 83 -10 116 -48 157 -77 82 -210 73 -263 -19
-10 -17 -23 -59 -28 -95 -15 -89 -15 -2071 0 -2160 17 -108 60 -158 142 -167
70 -8 91 1 179 83 143 131 290 188 484 187 178 -1 338 -34 550 -114 150 -56
321 -104 472 -131 113 -20 159 -23 422 -23 374 0 612 27 923 106 673 170 1200
528 1480 1006 154 263 236 579 237 911 1 725 -390 1385 -1100 1857 -265 176
-478 284 -902 456 -409 167 -604 251 -803 349 -333 165 -533 298 -706 470
-132 131 -195 225 -243 358 -30 85 -31 91 -30 257 1 154 3 178 27 260 109 364
348 588 736 693 88 23 114 25 301 26 194 1 211 0 314 -27 358 -94 711 -302
1007 -597 302 -300 474 -588 565 -948 39 -153 59 -193 108 -216 81 -38 177
-11 220 64 21 35 21 45 21 995 0 940 0 961 -20 1000 -27 53 -76 85 -132 85
-61 0 -97 -18 -178 -89 -173 -152 -322 -199 -571 -180 -146 12 -269 41 -524
125 -372 122 -442 134 -785 138 -143 2 -280 2 -305 0z m2180 -816 c0 -173 -4
-288 -9 -282 -5 5 -36 43 -68 84 -33 41 -128 148 -212 238 l-153 162 45 0 c69
0 212 28 301 59 45 15 84 29 89 30 4 0 7 -130 7 -291z m-3140 167 c0 -3 -14
-32 -30 -65 -125 -248 -179 -573 -135 -821 61 -348 300 -659 720 -935 285
-187 577 -329 1205 -584 622 -252 868 -385 1153 -622 271 -226 516 -574 616
-878 63 -191 75 -271 75 -520 0 -244 -10 -321 -69 -496 -99 -295 -307 -559
-584 -742 -68 -45 -127 -82 -131 -82 -4 0 5 33 20 72 87 224 133 563 110 807
-26 276 -116 513 -287 754 -71 100 -307 339 -423 429 -290 223 -597 391 -1143
627 -662 286 -974 457 -1234 675 -410 343 -569 719 -524 1236 45 510 242 885
586 1111 57 37 75 45 75 34z m-514 -5387 c86 -117 220 -272 313 -363 39 -38
71 -73 71 -77 0 -5 -29 -8 -64 -8 -115 0 -235 -27 -378 -85 -17 -7 -18 12 -18
309 0 174 2 316 4 316 2 0 35 -42 72 -92z"/>
<path d="M9365 10269 c-1105 -100 -2031 -621 -2580 -1449 -323 -486 -502
-1033 -566 -1720 -18 -193 -15 -657 5 -860 100 -1017 500 -1814 1188 -2371
748 -607 1822 -880 2863 -728 529 77 1074 284 1500 569 211 142 434 330 626
527 158 163 229 261 236 325 10 85 -59 169 -162 198 -87 24 -106 12 -320 -204
-191 -193 -304 -291 -468 -405 -448 -312 -973 -506 -1520 -561 -179 -19 -523
-8 -660 19 -905 182 -1416 1000 -1532 2451 -70 888 16 1775 240 2445 151 455
358 805 622 1055 203 192 432 312 677 355 116 20 326 19 447 -1 566 -97 1228
-508 1638 -1019 160 -199 316 -476 395 -703 44 -126 56 -149 95 -187 26 -24
41 -30 94 -33 52 -3 67 0 97 20 19 13 44 41 55 63 20 39 20 60 20 1070 0 1010
0 1031 -20 1070 -27 53 -76 85 -132 85 -95 0 -163 -59 -183 -157 -30 -151 -64
-209 -150 -257 -50 -28 -64 -31 -164 -35 -134 -4 -251 11 -421 54 -150 39
-227 66 -455 163 -251 106 -470 170 -710 208 -124 19 -598 28 -755 13z m-930
-621 c-209 -229 -420 -627 -560 -1053 -199 -606 -294 -1390 -265 -2199 26
-738 123 -1275 320 -1776 148 -376 377 -716 631 -940 44 -39 78 -70 76 -70
-11 0 -159 54 -257 94 -1003 412 -1620 1226 -1784 2356 -33 226 -40 343 -40
635 0 504 57 871 195 1272 150 433 362 776 669 1084 203 203 419 362 670 493
121 63 361 166 388 166 8 0 -12 -28 -43 -62z m3585 -408 c0 -165 -2 -300 -4
-300 -2 0 -35 40 -74 88 -39 49 -147 170 -241 270 -94 99 -171 182 -171 184 0
2 57 2 127 0 131 -3 260 15 312 43 52 29 51 37 51 -285z"/>
</g>
</svg>
